<?xml version="1.0" standalone="no"?>
<!DOCTYPE svg PUBLIC "-//W3C//DTD SVG 20010904//EN"
 "http://www.w3.org/TR/2001/REC-SVG-20010904/DTD/svg10.dtd">
<svg version="1.0" xmlns="http://www.w3.org/2000/svg"
 width="1024.000000pt" height="1024.000000pt" viewBox="0 0 1024.000000 1024.000000"
 preserveAspectRatio="xMidYMid meet">

<g transform="translate(0.000000,1024.000000) scale(0.100000,-0.100000)"
fill="#ffa6a6" stroke="none">
<path d="M4936 7299 c-76 -47 -260 -233 -347 -349 -88 -117 -185 -297 -229
-422 -79 -229 -100 -527 -53 -760 l6 -29 -44 29 c-222 148 -474 240 -763 278
-147 20 -467 14 -591 -9 -120 -23 -215 -47 -253 -63 l-34 -14 7 -67 c53 -505
327 -902 767 -1107 162 -76 366 -136 528 -156 109 -13 356 -13 496 1 97 9 392
56 484 78 l35 8 -55 12 c-126 29 -496 104 -649 132 -188 34 -447 101 -601 154
-132 46 -477 212 -464 224 5 5 56 21 114 37 87 22 133 28 265 32 391 11 725
-95 1140 -363 80 -52 173 -115 207 -142 l62 -48 -24 40 c-106 177 -325 398
-535 539 -189 128 -531 256 -775 289 -56 7 141 19 239 14 174 -9 378 -71 546
-167 102 -59 247 -180 325 -272 57 -67 217 -322 240 -382 14 -39 18 -31 8 17
-118 572 -133 692 -124 1002 3 127 10 268 16 315 5 47 10 152 11 234 l1 148
33 -47 c108 -151 197 -401 225 -625 28 -236 -10 -564 -124 -1052 -8 -32 -10
-58 -5 -58 15 0 110 171 159 285 56 132 112 299 139 415 91 391 22 786 -197
1125 -62 97 -108 152 -231 278 l-106 108 80 -36 c295 -134 517 -390 631 -730
88 -264 82 -587 -15 -830 -79 -195 -164 -327 -339 -523 -51 -56 -92 -104 -92
-107 0 -9 155 71 335 173 205 116 432 223 655 307 207 79 348 141 439 194 95
56 214 152 251 203 17 22 30 38 30 34 0 -22 -108 -215 -160 -286 -237 -322
-597 -526 -1065 -604 -130 -22 -350 -46 -420 -46 -33 0 -67 -5 -75 -10 -13 -8
-12 -10 4 -10 10 0 73 -18 140 -40 180 -59 474 -137 568 -151 46 -7 162 -13
258 -12 248 1 414 38 600 134 272 141 509 442 653 829 49 132 75 235 93 374
19 147 20 146 -120 181 -141 36 -305 55 -469 55 -177 0 -277 -12 -437 -51
-192 -48 -324 -105 -467 -202 -43 -29 -83 -56 -89 -60 -7 -4 -8 8 -3 41 11 69
11 229 -2 319 -43 317 -191 633 -427 914 -113 135 -308 309 -346 309 -7 0 -34
-14 -60 -31z m1971 -1726 c-8 -217 -47 -339 -162 -514 -82 -123 -261 -273
-409 -343 -149 -71 -363 -104 -582 -91 l-129 8 121 18 c173 25 310 62 421 114
275 129 493 340 618 599 53 111 99 242 111 316 13 78 17 38 11 -107z"/>
<path d="M5100 4621 c173 -155 401 -438 524 -648 41 -71 103 -177 138 -236
175 -301 391 -509 607 -585 l66 -23 -70 6 c-199 18 -357 78 -560 212 -181 119
-313 259 -426 451 -64 109 -113 223 -193 457 -36 105 -87 232 -113 283 -54
107 -77 135 -58 70 8 -24 21 -94 30 -156 22 -143 16 -474 -10 -592 -21 -98
-76 -261 -113 -338 -39 -83 -21 -68 29 24 l41 74 58 -87 c74 -112 220 -276
316 -356 316 -261 733 -407 1165 -407 124 0 133 7 156 115 24 115 24 475 1
601 -56 297 -202 609 -369 788 l-55 59 -220 2 c-212 1 -223 2 -339 33 -92 24
-163 53 -305 122 -101 50 -221 113 -266 141 -45 27 -86 49 -90 49 -5 0 20 -26
56 -59z"/>
<path d="M4895 4650 c-390 -190 -738 -244 -1134 -175 -108 19 -261 57 -313 80
-63 26 -42 7 34 -31 40 -20 130 -55 199 -78 l127 -42 -59 -53 c-245 -220 -427
-621 -460 -1018 -18 -223 12 -516 58 -551 14 -11 48 -13 163 -9 381 15 669
120 915 335 228 200 394 507 464 859 26 128 67 418 86 608 l6 60 -20 -25 c-11
-14 -39 -59 -62 -100 -73 -130 -247 -399 -336 -519 -106 -143 -285 -324 -418
-423 -90 -65 -229 -143 -292 -162 -22 -7 -22 -7 -7 31 70 166 206 393 337 563
152 195 315 343 572 520 187 129 242 180 140 130z m-262 -822 c-63 -281 -186
-467 -413 -627 -170 -119 -422 -203 -605 -200 l-50 0 36 14 c75 27 381 188
471 247 212 139 402 330 523 527 21 34 39 61 40 61 2 0 1 -10 -2 -22z"/>
</g>
</svg>
